<?xml version="1.0" encoding="utf-8"?>
<svg version="1.1" baseProfile="full" width="800" height="600" xmlns="http://www.w3.org/2000/svg">
<clipPath>
<rect x="0" y="0" width="800" height="600" fill="rgb(0,0,0)" />
</clipPath>
<text x="279" y="34" fill="rgb(0,0,0)">
Number of Elements Sorted Versus Time</text>
<line x1="158.858" y1="50" x2="158.858" y2="550" stroke="rgb(200,200,200)" />
<line x1="222.835" y1="50" x2="222.835" y2="550" stroke="rgb(200,200,200)" />
<line x1="286.811" y1="50" x2="286.811" y2="550" stroke="rgb(200,200,200)" />
<line x1="350.787" y1="50" x2="350.787" y2="550" stroke="rgb(200,200,200)" />
<line x1="414.764" y1="50" x2="414.764" y2="550" stroke="rgb(200,200,200)" />
<line x1="478.74" y1="50" x2="478.74" y2="550" stroke="rgb(200,200,200)" />
<line x1="542.717" y1="50" x2="542.717" y2="550" stroke="rgb(200,200,200)" />
<line x1="606.693" y1="50" x2="606.693" y2="550" stroke="rgb(200,200,200)" />
<line x1="670.669" y1="50" x2="670.669" y2="550" stroke="rgb(200,200,200)" />
<line x1="734.646" y1="50" x2="734.646" y2="550" stroke="rgb(200,200,200)" />
<line x1="100" y1="550" x2="750" y2="550" stroke="rgb(200,200,200)" />
<line x1="100" y1="513.061" x2="750" y2="513.061" stroke="rgb(200,200,200)" />
<line x1="100" y1="476.123" x2="750" y2="476.123" stroke="rgb(200,200,200)" />
<line x1="100" y1="439.184" x2="750" y2="439.184" stroke="rgb(200,200,200)" />
<line x1="100" y1="402.246" x2="750" y2="402.246" stroke="rgb(200,200,200)" />
<line x1="100" y1="365.307" x2="750" y2="365.307" stroke="rgb(200,200,200)" />
<line x1="100" y1="328.369" x2="750" y2="328.369" stroke="rgb(200,200,200)" />
<line x1="100" y1="291.43" x2="750" y2="291.43" stroke="rgb(200,200,200)" />
<line x1="100" y1="254.492" x2="750" y2="254.492" stroke="rgb(200,200,200)" />
<line x1="100" y1="217.553" x2="750" y2="217.553" stroke="rgb(200,200,200)" />
<line x1="100" y1="180.615" x2="750" y2="180.615" stroke="rgb(200,200,200)" />
<line x1="100" y1="143.676" x2="750" y2="143.676" stroke="rgb(200,200,200)" />
<line x1="100" y1="106.738" x2="750" y2="106.738" stroke="rgb(200,200,200)" />
<line x1="100" y1="69.7991" x2="750" y2="69.7991" stroke="rgb(200,200,200)" />
<line x1="100" y1="550" x2="750" y2="550" stroke="rgb(0,0,0)" />
<line x1="107.677" y1="550" x2="107.677" y2="554" stroke="rgb(0,0,0)" />
<line x1="120.472" y1="550" x2="120.472" y2="554" stroke="rgb(0,0,0)" />
<line x1="133.268" y1="550" x2="133.268" y2="554" stroke="rgb(0,0,0)" />
<line x1="146.063" y1="550" x2="146.063" y2="554" stroke="rgb(0,0,0)" />
<text x="158" y="578" fill="rgb(0,0,0)">
200</text>
<line x1="158.858" y1="550" x2="158.858" y2="558" stroke="rgb(0,0,0)" />
<line x1="171.654" y1="550" x2="171.654" y2="554" stroke="rgb(0,0,0)" />
<line x1="184.449" y1="550" x2="184.449" y2="554" stroke="rgb(0,0,0)" />
<line x1="197.244" y1="550" x2="197.244" y2="554" stroke="rgb(0,0,0)" />
<line x1="210.039" y1="550" x2="210.039" y2="554" stroke="rgb(0,0,0)" />
<text x="222" y="578" fill="rgb(0,0,0)">
400</text>
<line x1="222.835" y1="550" x2="222.835" y2="558" stroke="rgb(0,0,0)" />
<line x1="235.63" y1="550" x2="235.63" y2="554" stroke="rgb(0,0,0)" />
<line x1="248.425" y1="550" x2="248.425" y2="554" stroke="rgb(0,0,0)" />
<line x1="261.22" y1="550" x2="261.22" y2="554" stroke="rgb(0,0,0)" />
<line x1="274.016" y1="550" x2="274.016" y2="554" stroke="rgb(0,0,0)" />
<text x="286" y="578" fill="rgb(0,0,0)">
600</text>
<line x1="286.811" y1="550" x2="286.811" y2="558" stroke="rgb(0,0,0)" />
<line x1="299.606" y1="550" x2="299.606" y2="554" stroke="rgb(0,0,0)" />
<line x1="312.402" y1="550" x2="312.402" y2="554" stroke="rgb(0,0,0)" />
<line x1="325.197" y1="550" x2="325.197" y2="554" stroke="rgb(0,0,0)" />
<line x1="337.992" y1="550" x2="337.992" y2="554" stroke="rgb(0,0,0)" />
<text x="350" y="578" fill="rgb(0,0,0)">
800</text>
<line x1="350.787" y1="550" x2="350.787" y2="558" stroke="rgb(0,0,0)" />
<line x1="363.583" y1="550" x2="363.583" y2="554" stroke="rgb(0,0,0)" />
<line x1="376.378" y1="550" x2="376.378" y2="554" stroke="rgb(0,0,0)" />
<line x1="389.173" y1="550" x2="389.173" y2="554" stroke="rgb(0,0,0)" />
<line x1="401.969" y1="550" x2="401.969" y2="554" stroke="rgb(0,0,0)" />
<text x="414" y="578" fill="rgb(0,0,0)">
1000</text>
<line x1="414.764" y1="550" x2="414.764" y2="558" stroke="rgb(0,0,0)" />
<line x1="427.559" y1="550" x2="427.559" y2="554" stroke="rgb(0,0,0)" />
<line x1="440.354" y1="550" x2="440.354" y2="554" stroke="rgb(0,0,0)" />
<line x1="453.15" y1="550" x2="453.15" y2="554" stroke="rgb(0,0,0)" />
<line x1="465.945" y1="550" x2="465.945" y2="554" stroke="rgb(0,0,0)" />
<text x="478" y="578" fill="rgb(0,0,0)">
1200</text>
<line x1="478.74" y1="550" x2="478.74" y2="558" stroke="rgb(0,0,0)" />
<line x1="491.535" y1="550" x2="491.535" y2="554" stroke="rgb(0,0,0)" />
<line x1="504.331" y1="550" x2="504.331" y2="554" stroke="rgb(0,0,0)" />
<line x1="517.126" y1="550" x2="517.126" y2="554" stroke="rgb(0,0,0)" />
<line x1="529.921" y1="550" x2="529.921" y2="554" stroke="rgb(0,0,0)" />
<text x="542" y="578" fill="rgb(0,0,0)">
1400</text>
<line x1="542.717" y1="550" x2="542.717" y2="558" stroke="rgb(0,0,0)" />
<line x1="555.512" y1="550" x2="555.512" y2="554" stroke="rgb(0,0,0)" />
<line x1="568.307" y1="550" x2="568.307" y2="554" stroke="rgb(0,0,0)" />
<line x1="581.102" y1="550" x2="581.102" y2="554" stroke="rgb(0,0,0)" />
<line x1="593.898" y1="550" x2="593.898" y2="554" stroke="rgb(0,0,0)" />
<text x="606" y="578" fill="rgb(0,0,0)">
1600</text>
<line x1="606.693" y1="550" x2="606.693" y2="558" stroke="rgb(0,0,0)" />
<line x1="619.488" y1="550" x2="619.488" y2="554" stroke="rgb(0,0,0)" />
<line x1="632.283" y1="550" x2="632.283" y2="554" stroke="rgb(0,0,0)" />
<line x1="645.079" y1="550" x2="645.079" y2="554" stroke="rgb(0,0,0)" />
<line x1="657.874" y1="550" x2="657.874" y2="554" stroke="rgb(0,0,0)" />
<text x="670" y="578" fill="rgb(0,0,0)">
1800</text>
<line x1="670.669" y1="550" x2="670.669" y2="558" stroke="rgb(0,0,0)" />
<line x1="683.465" y1="550" x2="683.465" y2="554" stroke="rgb(0,0,0)" />
<line x1="696.26" y1="550" x2="696.26" y2="554" stroke="rgb(0,0,0)" />
<line x1="709.055" y1="550" x2="709.055" y2="554" stroke="rgb(0,0,0)" />
<line x1="721.85" y1="550" x2="721.85" y2="554" stroke="rgb(0,0,0)" />
<text x="734" y="578" fill="rgb(0,0,0)">
2000</text>
<line x1="734.646" y1="550" x2="734.646" y2="558" stroke="rgb(0,0,0)" />
<line x1="747.441" y1="550" x2="747.441" y2="554" stroke="rgb(0,0,0)" />
<text x="409" y="594" fill="rgb(0,0,0)">
N</text>
<line x1="100" y1="50" x2="100" y2="550" stroke="rgb(0,0,0)" />
<text x="58" y="558" fill="rgb(0,0,0)">
0</text>
<line x1="100" y1="550" x2="92" y2="550" stroke="rgb(0,0,0)" />
<line x1="100" y1="542.612" x2="96" y2="542.612" stroke="rgb(0,0,0)" />
<line x1="100" y1="535.225" x2="96" y2="535.225" stroke="rgb(0,0,0)" />
<line x1="100" y1="527.837" x2="96" y2="527.837" stroke="rgb(0,0,0)" />
<line x1="100" y1="520.449" x2="96" y2="520.449" stroke="rgb(0,0,0)" />
<text x="42" y="521" fill="rgb(0,0,0)">
1000</text>
<line x1="100" y1="513.061" x2="92" y2="513.061" stroke="rgb(0,0,0)" />
<line x1="100" y1="505.674" x2="96" y2="505.674" stroke="rgb(0,0,0)" />
<line x1="100" y1="498.286" x2="96" y2="498.286" stroke="rgb(0,0,0)" />
<line x1="100" y1="490.898" x2="96" y2="490.898" stroke="rgb(0,0,0)" />
<line x1="100" y1="483.511" x2="96" y2="483.511" stroke="rgb(0,0,0)" />
<text x="40" y="484" fill="rgb(0,0,0)">
2000</text>
<line x1="100" y1="476.123" x2="92" y2="476.123" stroke="rgb(0,0,0)" />
<line x1="100" y1="468.735" x2="96" y2="468.735" stroke="rgb(0,0,0)" />
<line x1="100" y1="461.348" x2="96" y2="461.348" stroke="rgb(0,0,0)" />
<line x1="100" y1="453.96" x2="96" y2="453.96" stroke="rgb(0,0,0)" />
<line x1="100" y1="446.572" x2="96" y2="446.572" stroke="rgb(0,0,0)" />
<text x="40" y="447" fill="rgb(0,0,0)">
3000</text>
<line x1="100" y1="439.184" x2="92" y2="439.184" stroke="rgb(0,0,0)" />
<line x1="100" y1="431.797" x2="96" y2="431.797" stroke="rgb(0,0,0)" />
<line x1="100" y1="424.409" x2="96" y2="424.409" stroke="rgb(0,0,0)" />
<line x1="100" y1="417.021" x2="96" y2="417.021" stroke="rgb(0,0,0)" />
<line x1="100" y1="409.634" x2="96" y2="409.634" stroke="rgb(0,0,0)" />
<text x="40" y="410" fill="rgb(0,0,0)">
4000</text>
<line x1="100" y1="402.246" x2="92" y2="402.246" stroke="rgb(0,0,0)" />
<line x1="100" y1="394.858" x2="96" y2="394.858" stroke="rgb(0,0,0)" />
<line x1="100" y1="387.47" x2="96" y2="387.47" stroke="rgb(0,0,0)" />
<line x1="100" y1="380.083" x2="96" y2="380.083" stroke="rgb(0,0,0)" />
<line x1="100" y1="372.695" x2="96" y2="372.695" stroke="rgb(0,0,0)" />
<text x="40" y="373" fill="rgb(0,0,0)">
5000</text>
<line x1="100" y1="365.307" x2="92" y2="365.307" stroke="rgb(0,0,0)" />
<line x1="100" y1="357.92" x2="96" y2="357.92" stroke="rgb(0,0,0)" />
<line x1="100" y1="350.532" x2="96" y2="350.532" stroke="rgb(0,0,0)" />
<line x1="100" y1="343.144" x2="96" y2="343.144" stroke="rgb(0,0,0)" />
<line x1="100" y1="335.757" x2="96" y2="335.757" stroke="rgb(0,0,0)" />
<text x="40" y="336" fill="rgb(0,0,0)">
6000</text>
<line x1="100" y1="328.369" x2="92" y2="328.369" stroke="rgb(0,0,0)" />
<line x1="100" y1="320.981" x2="96" y2="320.981" stroke="rgb(0,0,0)" />
<line x1="100" y1="313.593" x2="96" y2="313.593" stroke="rgb(0,0,0)" />
<line x1="100" y1="306.206" x2="96" y2="306.206" stroke="rgb(0,0,0)" />
<line x1="100" y1="298.818" x2="96" y2="298.818" stroke="rgb(0,0,0)" />
<text x="40" y="299" fill="rgb(0,0,0)">
7000</text>
<line x1="100" y1="291.43" x2="92" y2="291.43" stroke="rgb(0,0,0)" />
<line x1="100" y1="284.043" x2="96" y2="284.043" stroke="rgb(0,0,0)" />
<line x1="100" y1="276.655" x2="96" y2="276.655" stroke="rgb(0,0,0)" />
<line x1="100" y1="269.267" x2="96" y2="269.267" stroke="rgb(0,0,0)" />
<line x1="100" y1="261.879" x2="96" y2="261.879" stroke="rgb(0,0,0)" />
<text x="40" y="262" fill="rgb(0,0,0)">
8000</text>
<line x1="100" y1="254.492" x2="92" y2="254.492" stroke="rgb(0,0,0)" />
<line x1="100" y1="247.104" x2="96" y2="247.104" stroke="rgb(0,0,0)" />
<line x1="100" y1="239.716" x2="96" y2="239.716" stroke="rgb(0,0,0)" />
<line x1="100" y1="232.329" x2="96" y2="232.329" stroke="rgb(0,0,0)" />
<line x1="100" y1="224.941" x2="96" y2="224.941" stroke="rgb(0,0,0)" />
<text x="40" y="225" fill="rgb(0,0,0)">
9000</text>
<line x1="100" y1="217.553" x2="92" y2="217.553" stroke="rgb(0,0,0)" />
<line x1="100" y1="210.165" x2="96" y2="210.165" stroke="rgb(0,0,0)" />
<line x1="100" y1="202.778" x2="96" y2="202.778" stroke="rgb(0,0,0)" />
<line x1="100" y1="195.39" x2="96" y2="195.39" stroke="rgb(0,0,0)" />
<line x1="100" y1="188.002" x2="96" y2="188.002" stroke="rgb(0,0,0)" />
<text x="36" y="188" fill="rgb(0,0,0)">
10000</text>
<line x1="100" y1="180.615" x2="92" y2="180.615" stroke="rgb(0,0,0)" />
<line x1="100" y1="173.227" x2="96" y2="173.227" stroke="rgb(0,0,0)" />
<line x1="100" y1="165.839" x2="96" y2="165.839" stroke="rgb(0,0,0)" />
<line x1="100" y1="158.452" x2="96" y2="158.452" stroke="rgb(0,0,0)" />
<line x1="100" y1="151.064" x2="96" y2="151.064" stroke="rgb(0,0,0)" />
<text x="37" y="151" fill="rgb(0,0,0)">
11000</text>
<line x1="100" y1="143.676" x2="92" y2="143.676" stroke="rgb(0,0,0)" />
<line x1="100" y1="136.288" x2="96" y2="136.288" stroke="rgb(0,0,0)" />
<line x1="100" y1="128.901" x2="96" y2="128.901" stroke="rgb(0,0,0)" />
<line x1="100" y1="121.513" x2="96" y2="121.513" stroke="rgb(0,0,0)" />
<line x1="100" y1="114.125" x2="96" y2="114.125" stroke="rgb(0,0,0)" />
<text x="36" y="114" fill="rgb(0,0,0)">
12000</text>
<line x1="100" y1="106.738" x2="92" y2="106.738" stroke="rgb(0,0,0)" />
<line x1="100" y1="99.3499" x2="96" y2="99.3499" stroke="rgb(0,0,0)" />
<line x1="100" y1="91.9622" x2="96" y2="91.9622" stroke="rgb(0,0,0)" />
<line x1="100" y1="84.5745" x2="96" y2="84.5745" stroke="rgb(0,0,0)" />
<line x1="100" y1="77.1868" x2="96" y2="77.1868" stroke="rgb(0,0,0)" />
<text x="36" y="77" fill="rgb(0,0,0)">
13000</text>
<line x1="100" y1="69.7991" x2="92" y2="69.7991" stroke="rgb(0,0,0)" />
<line x1="100" y1="62.4114" x2="96" y2="62.4114" stroke="rgb(0,0,0)" />
<line x1="100" y1="55.0237" x2="96" y2="55.0237" stroke="rgb(0,0,0)" />
<text x="36" y="370" transform="rotate(-90,36,370)">Time (microseconds)</text>
<text x="120" y="66" fill="rgb(200,0,100)">
bubbleSort</text>
<text x="120" y="98" fill="rgb(100,20,220)">
selectionSort</text>
<text x="120" y="130" fill="rgb(50,220,10)">
insertionSort</text>
<text x="120" y="162" fill="rgb(200,209,220)">
std::sort</text>
<clipPath>
<rect x="100" y="50" width="650" height="500" fill="rgb(0,0,0)" />
</clipPath>
<line x1="100" y1="549.926" x2="105.118" y2="549.889" stroke="rgb(200,0,100)" />
<line x1="105.118" y1="549.889" x2="115.354" y2="549.298" stroke="rgb(200,0,100)" />
<line x1="115.354" y1="549.298" x2="135.827" y2="547.451" stroke="rgb(200,0,100)" />
<line x1="135.827" y1="547.451" x2="176.772" y2="542.982" stroke="rgb(200,0,100)" />
<line x1="176.772" y1="542.982" x2="258.661" y2="522.924" stroke="rgb(200,0,100)" />
<line x1="258.661" y1="522.924" x2="422.441" y2="437.153" stroke="rgb(200,0,100)" />
<line x1="422.441" y1="437.153" x2="750" y2="50" stroke="rgb(200,0,100)" />
<line x1="100" y1="549.963" x2="105.118" y2="549.963" stroke="rgb(100,20,220)" />
<line x1="105.118" y1="549.963" x2="115.354" y2="549.704" stroke="rgb(100,20,220)" />
<line x1="115.354" y1="549.704" x2="135.827" y2="549.224" stroke="rgb(100,20,220)" />
<line x1="135.827" y1="549.224" x2="176.772" y2="547.451" stroke="rgb(100,20,220)" />
<line x1="176.772" y1="547.451" x2="258.661" y2="540.396" stroke="rgb(100,20,220)" />
<line x1="258.661" y1="540.396" x2="422.441" y2="511.806" stroke="rgb(100,20,220)" />
<line x1="422.441" y1="511.806" x2="750" y2="400.251" stroke="rgb(100,20,220)" />
<line x1="100" y1="550" x2="105.118" y2="550" stroke="rgb(50,220,10)" />
<line x1="105.118" y1="550" x2="115.354" y2="549.889" stroke="rgb(50,220,10)" />
<line x1="115.354" y1="549.889" x2="135.827" y2="549.594" stroke="rgb(50,220,10)" />
<line x1="135.827" y1="549.594" x2="176.772" y2="548.707" stroke="rgb(50,220,10)" />
<line x1="176.772" y1="548.707" x2="258.661" y2="545.087" stroke="rgb(50,220,10)" />
<line x1="258.661" y1="545.087" x2="422.441" y2="529.905" stroke="rgb(50,220,10)" />
<line x1="422.441" y1="529.905" x2="750" y2="472.946" stroke="rgb(50,220,10)" />
<line x1="100" y1="549.963" x2="105.118" y2="549.926" stroke="rgb(200,209,220)" />
<line x1="105.118" y1="549.926" x2="115.354" y2="549.778" stroke="rgb(200,209,220)" />
<line x1="115.354" y1="549.778" x2="135.827" y2="549.483" stroke="rgb(200,209,220)" />
<line x1="135.827" y1="549.483" x2="176.772" y2="549.15" stroke="rgb(200,209,220)" />
<line x1="176.772" y1="549.15" x2="258.661" y2="548.005" stroke="rgb(200,209,220)" />
<line x1="258.661" y1="548.005" x2="422.441" y2="545.272" stroke="rgb(200,209,220)" />
<line x1="422.441" y1="545.272" x2="750" y2="539.583" stroke="rgb(200,209,220)" />
</svg>

